<?xml version="1.0" encoding="UTF-8" standalone="no"?>
<svg
   xmlns:dc="http://purl.org/dc/elements/1.1/"
   xmlns:cc="http://creativecommons.org/ns#"
   xmlns:rdf="http://www.w3.org/1999/02/22-rdf-syntax-ns#"
   xmlns:svg="http://www.w3.org/2000/svg"
   xmlns="http://www.w3.org/2000/svg"
   xmlns:sodipodi="http://sodipodi.sourceforge.net/DTD/sodipodi-0.dtd"
   xmlns:inkscape="http://www.inkscape.org/namespaces/inkscape"
   sodipodi:docname="sleipnir_logo.svg"
   inkscape:version="1.0 (4035a4fb49, 2020-05-01)"
   id="svg8"
   version="1.1"
   viewBox="0 0 210 297"
   height="297mm"
   width="210mm">
  <defs
     id="defs2" />
  <sodipodi:namedview
     inkscape:window-maximized="1"
     inkscape:window-y="-8"
     inkscape:window-x="1912"
     inkscape:window-height="1017"
     inkscape:window-width="1920"
     showgrid="false"
     inkscape:document-rotation="0"
     inkscape:current-layer="layer1"
     inkscape:document-units="mm"
     inkscape:cy="417.14885"
     inkscape:cx="784.6508"
     inkscape:zoom="0.7"
     inkscape:pageshadow="2"
     inkscape:pageopacity="0.0"
     borderopacity="1.0"
     bordercolor="#666666"
     pagecolor="#ffffff"
     id="base" />
  <metadata
     id="metadata5">
    <rdf:RDF>
      <cc:Work
         rdf:about="">
        <dc:format>image/svg+xml</dc:format>
        <dc:type
           rdf:resource="http://purl.org/dc/dcmitype/StillImage" />
        <dc:title></dc:title>
      </cc:Work>
    </rdf:RDF>
  </metadata>
  <g
     id="layer1"
     inkscape:groupmode="layer"
     inkscape:label="Layer 1">
    <path
       inkscape:export-ydpi="225.09"
       inkscape:export-xdpi="225.09"
       d="m 35.399231,93.29101 c -0.131525,-0.009 -0.25199,0.0083 -0.358617,0.05064 -0.391768,0.157533 -1.116912,1.871398 -1.487778,3.517636 -0.664766,2.950977 -1.496034,4.261274 -3.9429,6.213054 -0.878708,0.70091 -1.597316,1.34742 -1.597316,1.43711 0,0.0898 -0.869421,1.40047 -1.93167,2.91248 -1.062223,1.51204 -2.26322,3.46112 -2.669091,4.33102 -1.594141,3.41656 -0.968242,6.86702 1.447959,7.97935 0.577162,0.2657 0.641535,0.23696 1.723946,-0.78031 1.448805,-1.36167 1.835917,-1.59035 1.831393,-1.08471 -9.79e-4,0.20865 -0.1397,0.79026 -0.306943,1.29347 -0.352955,1.06177 -0.166106,2.23261 0.373618,2.34146 0.521864,0.1053 2.390431,-0.88572 3.13055,-1.66037 0.701251,-0.7339 0.794676,-1.23065 0.435133,-2.31148 -0.123137,-0.37012 -0.167428,-0.90924 -0.09819,-1.19838 l 0.126073,-0.52554 2.683563,0.13486 c 3.281522,0.16492 4.519666,-0.49316 5.858563,-1.39422 0.692521,-0.46606 -0.926624,-2.62657 -2.298567,-1.88669 -1.371944,0.73988 -3.120893,0.86656 -4.526333,0.19584 -0.937922,-0.44759 -2.244064,-1.88052 -2.656179,-2.91404 -1.51167,-3.79105 2.855595,-8.45441 7.061068,-7.53959 1.975855,0.42981 3.392249,1.84335 4.695322,4.68707 0.578485,1.26243 0.632725,1.56456 0.633042,3.50676 4.76e-4,2.03422 -0.0336,2.20038 -0.799968,3.89588 -1.177078,2.60427 -1.947968,3.24048 -5.813583,4.79817 -4.18854,1.68775 -9.107964,4.29151 -10.567326,5.59292 -2.420276,2.15834 -4.229894,5.17043 -4.952656,8.24394 -0.228071,0.96972 -0.345308,2.28957 -0.33745,3.81942 5.82e-4,0.12401 0.0082,0.23982 0.01032,0.36121 h 0.103875 c -0.05384,0.42439 -0.08475,0.85812 -0.08475,1.30275 0,6.11309 4.342342,8.45542 9.484175,10.28361 5.141833,1.7711 9.141037,3.48526 9.141037,8.17005 0,5.48462 -4.284822,5.88441 -5.655972,5.88441 -2.342382,0 -5.427636,-0.74282 -7.884266,-1.82832 -4.1706,-1.94247 -4.9707,-3.77071 -5.599165,-6.57014 l -1.370965,0.34311 c 1.085506,4.5134 1.428512,6.34172 1.599909,9.42684 h 1.542547 c 0,-0.22854 0.05681,-0.51419 0.571024,-0.51419 0.171397,0 0.571474,0.1142 0.685747,0.1142 2.742301,0.57131 5.312939,0.91416 8.169513,0.91416 10.969255,0 13.026073,-6.22768 13.026073,-9.99834 0,-7.19857 -6.284331,-9.54066 -10.911973,-11.25463 -5.963099,-2.08706 -7.602511,-3.91563 -7.928715,-6.27351 h 0.121946 c -0.116231,-1.06651 -0.08025,-2.0995 0.109035,-3.19773 0.61677,-2.08177 2.312273,-4.12636 6.21202,-4.12636 0.742711,0 8.455924,-1.1e-4 9.769951,7.31271 h 1.199409 v -1.71357 c 0,-0.11428 -0.114194,-2.79932 -0.114194,-3.31351 0,-0.11425 0.171264,-2.91407 0.228388,-3.31402 l -0.970994,-0.22838 c -0.399918,0.28564 -1.028568,0.39997 -1.599909,0.39997 -0.914083,0 -6.62686,-0.68575 -7.883737,-0.68575 -1.800728,0 -3.461702,0.27927 -4.93768,0.79219 0.272097,-0.38706 0.578511,-0.77142 0.926544,-1.16634 1.746091,-1.98138 3.212862,-3.02617 7.496704,-5.34231 4.616424,-2.49589 6.579605,-3.80224 7.674478,-5.10563 0.988245,-1.17645 1.791784,-2.89322 2.185379,-4.67154 0.278685,-1.25928 0.276357,-1.58941 -0.01807,-3.39979 -0.440452,-2.70764 -0.288238,-2.97484 1.057301,-1.86037 1.857057,1.53819 3.005032,3.95955 3.293851,6.94532 0.313346,3.2394 -0.360865,8.26331 -1.371494,10.2185 l -0.596874,1.15445 1.171522,1.29813 c 0.323295,0.35822 0.694452,0.82515 1.031955,1.28828 -1.531541,0.57097 -2.903432,1.05 -3.560498,1.27744 l 0.05736,1.31413 c 0.514192,-0.0571 0.799439,-0.1142 1.31363,-0.1142 0.457041,0 1.485688,6e-5 1.99988,0.91417 0.571314,1.14263 0.571023,6.28446 0.571023,8.11268 0,2.85657 -0.228361,18.79613 -0.8568,20.5672 -0.571315,1.54257 -2.114021,2.34214 -3.770841,2.51354 l -0.05683,1.31413 c 3.199368,-0.17137 4.970092,-0.28575 6.741186,-0.28575 2.970848,0 5.370486,0.22857 7.370101,0.39997 v -1.48518 c -0.856985,-0.11425 -3.028076,-0.34285 -3.885035,-1.42833 -0.685589,-0.74271 -0.685245,-4.34189 -0.685245,-8.3411 0,-6.51147 -2.64e-4,-22.15975 1.36996,-27.0769 0.149013,-0.19182 0.273817,-0.38827 0.361712,-0.5824 0.332184,-0.73348 0.366897,-2.09852 0.09147,-3.60185 -0.0571,-0.31208 0.09006,-0.45146 0.635106,-0.601 0.390393,-0.10708 0.969592,-0.44998 1.287277,-0.76221 0.526204,-0.51711 0.568854,-0.66488 0.473869,-1.65934 -0.11475,-1.2006 -0.499031,-2.11614 -1.382871,-3.29488 -0.319326,-0.4259 -0.578115,-0.85651 -0.57359,-0.95655 0.004,-0.10004 0.301148,-0.37343 0.659368,-0.60719 0.965755,-0.63024 1.439333,-1.77604 1.168929,-2.82824 -0.290777,-1.13165 -0.988933,-1.802 -2.604479,-2.50219 -0.748268,-0.32427 -1.424887,-0.64458 -1.503283,-0.71157 -0.0784,-0.067 0.127476,-0.57565 0.456829,-1.13017 0.692256,-1.16546 0.742553,-1.73265 0.225822,-2.55384 -0.76753,-1.21973 -2.169001,-1.94222 -6.040464,-3.11404 -1.303919,-0.39467 -1.455499,-0.49773 -1.562682,-1.05936 -0.450426,-2.359927 -4.131151,-3.713932 -8.141123,-2.995165 -1.771676,0.31758 -1.902328,0.254529 -2.641679,-1.274339 -0.696331,-1.439888 -2.136458,-2.68888 -3.057181,-2.748676 z m 9.236127,7.0249 c 0.147373,0.0138 0.310383,0.14671 0.577242,0.40722 0.460745,0.44979 0.542501,0.78586 0.28784,1.17562 -0.307181,0.47006 -0.865928,0.50827 -1.268677,0.0863 -0.48387,-0.50702 -0.508344,-0.91509 -0.08215,-1.36168 0.206348,-0.21624 0.338428,-0.32126 0.485748,-0.30747 z m 7.194392,4.77181 c 0.887121,-0.0501 1.49434,0.9492 0.808222,1.66812 -0.381873,0.40016 -0.449791,0.40354 -1.101222,0.0599 -0.74549,-0.3932 -0.805074,-1.35779 -0.101283,-1.63814 0.135229,-0.0539 0.267547,-0.0828 0.394283,-0.0899 z m 3.35018,6.04769 c 0.525674,0.0289 1.224227,0.55946 1.224227,1.16581 0,0.62402 -0.547952,0.96522 -1.160145,0.72297 -0.472704,-0.18709 -0.790998,-1.03486 -0.59219,-1.57768 0.08559,-0.23387 0.289189,-0.32422 0.528108,-0.3111 z m 1.117785,6.1867 v 5e-4 c 0.838518,0.006 1.330034,0.81013 0.719323,1.45005 -0.54528,0.57137 -1.14046,0.54372 -1.524979,-0.0713 -0.387085,-0.61905 -0.21336,-1.16129 0.426852,-1.32964 0.131736,-0.0346 0.259027,-0.0504 0.378804,-0.0496 z m -1.984904,5.57485 c 0.115464,10e-4 0.237226,0.03 0.36277,0.0899 0.599546,0.28623 0.851403,1.15155 0.542079,1.86293 -0.271807,0.62503 -1.034601,0.68839 -1.519793,0.12661 -0.691515,-0.80074 -0.193279,-2.09072 0.614944,-2.07947 z m 36.972928,5.54437 c -1.713945,0 -3.085068,1.37141 -3.085068,3.02823 0,1.71395 1.371123,3.0851 3.085068,3.0851 1.713944,0 3.085094,-1.37115 3.085094,-3.0851 0,-1.65682 -1.37115,-3.02823 -3.085094,-3.02823 z m 70.856661,0 c -1.71395,0 -3.08507,1.37141 -3.08507,3.02823 0,1.71395 1.37112,3.0851 3.08507,3.0851 1.71394,0 3.08509,-1.37115 3.08509,-3.0851 0,-1.65682 -1.37115,-3.02823 -3.08509,-3.02823 z m 16.09772,13.94023 c -2.45665,2.05674 -7.25598,3.0852 -8.57001,3.37085 v 1.59938 c 0.57132,-0.0571 0.91416,-0.1142 1.42833,-0.1142 2.17101,0 2.39935,1.02844 2.39935,5.42759 0,9.25528 -0.1143,10.28372 -3.48507,10.56936 v 1.25677 c 4.91331,-0.11425 11.31237,-0.22834 14.62598,-0.34261 v -1.54255 h -3.65662 c -0.57131,0 -1.14263,1.4e-4 -1.54255,-0.22838 -0.79983,-0.62844 -0.8568,-3.0284 -0.8568,-5.77073 0,-1.14262 -5e-5,-3.77057 0.11422,-7.31273 0.97124,-1.314 2.34225,-2.57091 3.82768,-2.57091 1.25687,0 1.42827,1.31427 1.54254,2.1141 2.74233,-0.22854 4.39921,-1.59991 4.39921,-3.14245 0,-1.14263 -0.6857,-1.88545 -1.71411,-2.34249 -0.57129,-0.28567 -0.68535,-0.34251 -0.97099,-0.57103 -1.14263,0.5142 -6.28449,3.48512 -7.08433,3.88504 0.0571,-0.62844 0,-3.65657 0,-4.28501 z m -71.6566,0.0574 c -1.71394,0.97124 -1.82835,1.02796 -5.31336,2.34196 -1.314052,0.5142 -2.513488,1.08585 -3.141926,1.3715 l 0.28575,1.31363 c 1.314053,-0.51419 1.599376,-0.57103 2.113566,-0.57103 1.88535,0 2.05674,2.51363 2.05674,5.37023 v 12.11191 c 0,13.94007 -0.22868,14.62598 -3.256647,14.62598 v 1.48518 c 5.598877,-0.62846 6.227417,-0.62867 13.026077,-0.57155 v -1.54255 h -0.74261 c -3.9992,0 -3.99923,-0.57134 -3.99923,-5.54177 0,-1.14263 0.057,-6.56971 0.11422,-8.91212 0.79984,0.22852 2.39961,0.79944 3.88501,0.79944 2.62805,0 12.22613,-2.45618 12.22613,-11.08306 0,-7.36997 -5.88449,-10.34094 -8.74107,-10.34094 -1.99958,0 -5.25623,1.54222 -7.37007,2.62773 -0.22855,-1.88534 -0.28572,-2.62792 -0.4,-3.31348 z m -13.983649,0.0568 c -3.370739,2.45665 -5.199009,3.19952 -7.99846,3.77084 v 1.42833 c 0.228521,0 1.199568,-0.1142 1.370965,-0.1142 1.771068,0 1.99988,0.5711 1.99988,4.97023 0,1.65682 -0.05715,7.94128 -0.399971,9.14106 -0.171397,0.57129 -0.742871,0.8569 -2.742485,1.14255 l -0.228389,1.77096 c 2.742301,-0.28564 5.541936,-0.28525 8.284237,-0.28525 h 4.627615 l -0.343112,-1.48571 c -0.628438,-0.0571 -0.799782,-0.057 -2.170932,-0.1142 -0.971233,0 -1.256665,-0.22875 -1.485186,-0.57155 -0.685588,-1.25687 -0.685747,-5.76982 -0.685747,-7.48376 0,-7.88416 0.514244,-10.05515 0.914162,-11.71197 z m 70.856159,0 c -3.37077,2.45665 -5.19904,3.19952 -7.99849,3.77084 v 1.42833 c 0.22852,0 1.2001,-0.1142 1.3715,-0.1142 1.77106,0 1.99935,0.5711 1.99935,4.97023 0,1.65682 -0.0572,7.94128 -0.39997,9.14106 -0.1714,0.57129 -0.74235,0.8569 -2.74196,1.14255 l -0.22892,1.77096 c 2.7423,-0.28564 5.54194,-0.28525 8.28424,-0.28525 h 4.62764 l -0.34261,-1.48571 c -0.62846,-0.0571 -0.79978,-0.057 -2.17093,-0.1142 -0.97126,0 -1.25717,-0.22875 -1.48572,-0.57155 -0.68556,-1.25687 -0.68521,-5.76982 -0.68521,-7.48376 0,-7.88416 0.51371,-10.05515 0.91363,-11.71197 z m -28.57916,0.39997 c -0.57128,0 -3.08475,1.54278 -8.28373,2.62826 l 0.28527,1.37099 c 1.99962,0.28565 2.22856,0.28554 2.68563,0.74258 0.74271,0.85699 0.74258,5.54189 0.74258,6.85591 0,7.4271 -0.11419,7.42728 -3.71348,8.28427 v 1.37096 c 5.9417,0 7.99835,-1e-4 12.34035,0.22842 v -1.42833 c -0.91411,-0.11427 -1.65682,-0.28549 -2.05674,-0.34264 -1.48542,-0.28564 -1.48568,-0.91416 -1.48568,-5.94174 0,-1.19976 0.11419,-7.1415 0.11419,-8.51265 1.14263,-0.62847 3.02829,-1.71411 5.48494,-1.71411 3.14225,0 3.71348,1.82867 3.71348,7.19902 0,8.5126 -0.79959,8.74078 -3.54192,9.31212 v 1.42833 c 1.37115,-0.11428 3.08507,-0.22842 5.656,-0.22842 2.68517,0 4.85584,0.11414 6.22702,0.22842 v -1.42833 c -0.1714,0 -0.79978,-0.17129 -1.14258,-0.22842 -1.71394,-0.28564 -1.99959,-0.34255 -2.05671,-1.48518 v -10.22676 c 0,-2.62805 8e-5,-7.65587 -5.77019,-7.65587 -3.54216,0 -7.08462,2.17127 -8.57004,3.02823 v -3.14243 z m -61.917125,0.11422 c -4.170601,0 -10.055199,5.14204 -10.055199,12.28349 0,4.91331 2.914095,9.48365 9.369954,9.48365 4.399121,0 7.655243,-2.17109 9.426311,-3.37085 l -0.685245,-1.08521 c -1.828191,1.19975 -3.827833,2.17093 -6.055942,2.17093 -1.256903,0 -5.941589,-1.02838 -6.798574,-9.14104 l 13.997093,-3.08509 v -1.48569 c -0.799836,0 -0.971286,-0.22828 -2.456709,-2.51354 -1.314,-1.94247 -4.056513,-3.25665 -6.741689,-3.25665 z m -1.599407,2.39932 c 3.142245,0 4.399227,3.25689 4.399227,3.8282 0,0.74271 -0.571367,0.85662 -1.942517,1.19941 l -5.655998,1.31413 c -0.171397,-4.05635 1.142576,-6.34174 3.199288,-6.34174 z m 40.422352,0.91416 c 5.08471,0 7.14116,6.28446 7.14116,9.65523 0,3.54216 -1.77075,6.34174 -4.68448,6.34174 -1.82819,0 -6.11335,-1.94257 -6.51327,-2.34251 -0.0571,-1.94247 0,-10.51187 0,-12.28296 1.25688,-0.74272 2.34265,-1.3715 4.05659,-1.3715 z m -86.067103,18.63865 c -0.370417,-5e-5 -2.499413,2.6215 -3.092821,3.80805 -0.422063,0.84394 -0.477176,1.87404 -0.162269,3.05511 0.461037,1.72921 3.743775,8.1643 5.94278,11.65045 1.245129,1.9739 2.598737,4.32266 3.008101,5.21933 0.786527,1.72273 1.482936,2.52558 3.616298,4.16563 1.665341,1.28029 2.512933,2.3077 3.002412,3.64215 0.233389,0.63627 0.47252,1.23761 0.532263,1.33636 0.166581,0.27495 0.357028,-0.0435 0.804095,-1.34721 0.749723,-2.18615 0.739431,-2.30955 -0.257863,-2.95174 -1.180095,-0.75991 -1.748314,-1.57094 -2.539921,-3.62771 -0.846322,-2.19908 -1.357021,-2.87176 -2.71145,-3.57084 -2.789898,-1.43989 -4.014813,-3.39762 -5.650812,-9.032 -0.53803,-1.85301 -0.693605,-2.73984 -0.691435,-3.93774 0.003,-1.92022 0.220848,-2.40652 1.329637,-2.97244 0.129672,-0.0662 -2.961296,-5.4374 -3.129015,-5.4374 z m 66.140673,2.58641 c -0.0962,-5.3e-4 -0.319247,0.29091 -0.495062,0.64648 -0.331391,0.67014 -2.132595,3.69642 -2.936267,4.93356 -0.680138,1.04701 -0.589174,1.46777 0.612881,2.8422 0.589439,0.674 1.072039,1.37348 1.072303,1.5539 2.7e-5,0.31449 -4.750461,5.46275 -8.50802,9.21959 -1.974427,1.97401 -2.367704,2.63298 -3.091286,5.18004 -0.464423,1.63478 -0.662887,4.02693 -0.360178,4.33568 0.191929,0.19574 0.389044,0.16581 1.191657,-0.17934 0.398807,-0.17147 1.207903,-0.42381 1.797818,-0.56121 0.975651,-0.22725 1.07815,-0.30236 1.132231,-0.83198 0.0944,-0.92599 1.00457,-3.87363 1.524979,-4.93871 0.778801,-1.59396 1.601761,-2.48354 3.371374,-3.64577 0.921094,-0.605 3.29811,-2.46015 5.282353,-4.12171 1.984269,-1.66164 4.243758,-3.50443 5.020892,-4.09588 1.658726,-1.26241 2.021761,-1.9726 1.516195,-2.96984 -0.344012,-0.67863 -3.378994,-4.32419 -4.415764,-5.30408 -0.886777,-0.8382 -2.499571,-2.06293 -2.716106,-2.06293 z m -7.902893,0.13076 -7.765917,8.6315 -2.568337,3.00707 c -0.780309,0.91345 -1.253464,2.01655 -3.023579,3.62302 -0.796078,0.7225 -1.588664,1.31434 -1.761649,1.31516 -0.366765,0.003 -3.491071,-3.24945 -3.482472,-3.62407 0.007,-0.23588 3.975761,-3.13635 4.183221,-3.33674 0,0 1.500981,-1.04029 2.100104,-1.47794 0.438414,-0.32023 1.549479,-1.38478 2.149739,-1.93786 l 1.753923,-3.01842 c -0.960411,-1.06397 -1.774057,-1.88725 -1.774057,-1.88725 -1.884204,1.62756 -8.980461,7.2507 -10.465012,8.40571 l -0.732234,0.56999 -1.438672,-1.55599 c -0.791237,-0.85566 -1.438672,-1.61337 -1.438672,-1.68412 2.65e-4,-0.0709 0.723847,-0.76282 1.608667,-1.53842 0.884899,-0.77558 1.813163,-1.63325 2.062427,-1.90479 l 0.453204,-0.4935 -1.109503,-1.41079 -1.111039,-1.41023 -0.806159,0.70382 c -1.340723,1.16994 -3.795977,3.07012 -3.964093,3.06906 -0.08691,2.1e-4 -0.352134,-0.29286 -0.590153,-0.64955 -0.238072,-0.35671 -0.764408,-0.97602 -1.169961,-1.37668 l -0.73742,-0.72914 -1.122918,1.264 -1.122945,1.26349 1.172025,1.03973 c 0.644472,0.57177 1.170993,1.10715 1.170993,1.18959 5.29e-4,0.17246 -4.21775,3.45893 -5.31958,4.14497 -0.918872,0.57226 -1.002004,0.51189 -2.325952,-1.6981 -0.791237,-1.32083 -2.781036,-5.8643 -3.033925,-5.72884 -0.173434,0.0929 -0.858784,0.23233 -1.523417,0.30954 l -1.208696,0.14057 c 0.764989,2.54238 1.803743,4.8219 2.144553,5.4932 0.340837,0.67133 2.632419,3.41543 2.632419,3.52692 1.85e-4,0.11147 -4.144962,3.80511 -4.428675,3.90827 -0.622776,0.2264 -4.806818,-9.54937 -5.654966,-12.22251 -0.312552,-0.98512 -0.397854,-1.07164 -1.80504,-1.84586 -0.812192,-0.44691 -1.521169,-0.76706 -1.57615,-0.71107 -1.04685,1.09241 2.483856,10.79775 6.422867,16.14734 0.256328,0.34808 0.466116,0.7171 0.466116,0.8206 -7.9e-5,0.10351 -0.307234,0.70871 -0.682625,1.34464 -0.375444,0.63593 -0.682149,1.35414 -0.682149,1.59575 2.7e-5,0.54555 1.285743,2.31879 2.15646,2.97397 0.926862,0.69758 1.352682,0.64845 1.358054,-0.15761 0.008,-0.95131 0.31578,-2.1536 0.63873,-2.48303 0.380392,-0.38804 0.942102,-0.0777 2.918672,1.60972 0.832749,0.71094 1.746461,1.46492 2.030386,1.67585 l 0.515726,0.38396 -0.499719,0.67437 c -0.574569,0.77631 -0.925989,1.92691 -0.927073,3.03911 v 0.77203 l 0.731731,-0.12351 c 0.40222,-0.0677 1.215231,-0.12398 1.806628,-0.12504 l 1.07487,-0.003 0.516758,-1.19375 c 0.37547,-0.86653 0.620765,-1.19319 0.895032,-1.19319 0.456089,-5e-5 4.730062,2.03227 5.508704,2.61948 0.917866,0.69231 1.117706,0.42821 1.027325,-1.35805 -0.09369,-1.85221 -0.398384,-3.59521 -0.657305,-3.75843 -0.102129,-0.0643 -0.480113,-0.0189 -0.839761,0.10231 -0.545968,0.18381 -0.827193,0.151 -1.702726,-0.19896 -0.576739,-0.23051 -1.127866,-0.49832 -1.225259,-0.59532 -0.254053,-0.25299 0.621612,-1.49121 1.493441,-2.11251 l 0.730726,-0.52141 0.39841,0.51623 c 0.219127,0.28418 1.215919,1.14411 2.214853,1.90997 l 1.816444,1.39165 0.12401,1.05212 c 0.068,0.57859 0.124989,1.83319 0.125571,2.78744 l 0.0031,1.73426 0.633571,0.18706 c 0.348721,0.10266 1.085215,0.19521 1.637612,0.20463 0.957686,0.0172 1.014519,-0.0115 1.218539,-0.60875 0.117766,-0.34457 0.214947,-1.0604 0.214974,-1.5911 0,-1.18761 0.155945,-1.21409 2.236549,-0.37105 1.271403,0.5152 1.756304,0.6014 3.635428,0.64648 2.136907,0.0513 2.174822,0.0446 2.554896,-0.46818 l 0.386027,-0.52038 -0.652674,-0.90847 c -0.358801,-0.49959 -0.810842,-1.13811 -1.003565,-1.41904 -0.417247,-0.60831 -0.840925,-0.63987 -1.501722,-0.11266 -0.80264,0.64045 -2.397971,0.43201 -3.973909,-0.51935 -0.488209,-0.29467 -0.334274,-0.55216 1.553395,-2.58951 l 1.522386,-1.64176 1.429888,1.38546 c 1.753658,1.69921 6.273324,5.15067 6.585135,5.02862 0.129434,-0.0506 0.318929,-0.92067 0.439764,-2.02055 0.116655,-1.06214 0.273315,-2.13193 0.348298,-2.37815 0.131894,-0.43318 0.09427,-0.44752 -1.160648,-0.44752 -0.713132,-2e-5 -1.593744,-0.12731 -1.956991,-0.28215 -0.738531,-0.31477 -1.891903,-1.45372 -2.749179,-2.7156 l -0.567928,-0.83664 0.65524,-0.51935 c 1.814301,-1.43915 5.543021,-4.08059 6.785134,-4.80589 0.771419,-0.45043 1.907302,-0.95293 2.524389,-1.11726 1.226185,-0.32665 2.63533,-0.99859 3.37447,-1.60919 0.471381,-0.38937 0.471434,-0.39164 0.160708,-1.50585 -0.379148,-1.35972 1.695503,-7.4812 1.695503,-7.4812 z m -26.925984,9.02012 c 0.110993,-1.3e-4 0.939033,0.76875 1.839675,1.70841 l 1.637612,1.70842 -0.456301,0.50385 c -0.251063,0.27693 -1.516962,1.37646 -2.812732,2.44379 -2.179241,1.79499 -2.39014,1.92252 -2.806039,1.69551 -0.707522,-0.3863 -3.516074,-3.33653 -3.516074,-3.69332 2.64e-4,-0.17669 0.234632,-0.44831 0.521943,-0.6036 0.287338,-0.15523 1.617848,-1.06524 2.956402,-2.0226 1.33858,-0.95732 2.524574,-1.74046 2.635514,-1.74046 z m -8.463068,5.9681 c 0.08112,0 1.057222,0.87937 2.16834,1.95493 l 2.020041,1.95543 -0.48059,0.58084 c -0.264477,0.31935 -1.012348,1.09352 -1.661398,1.71979 l -1.18028,1.13842 -1.203033,-0.58084 c -1.308312,-0.63111 -3.317267,-1.96035 -3.732081,-2.47012 -0.221165,-0.27186 -0.182641,-0.42236 0.262017,-1.01701 0.515991,-0.69011 3.522478,-3.28144 3.806984,-3.28144 z m 13.914914,0.10335 c 0.281701,-0.0346 0.632565,0.30972 1.903756,1.60044 0.957924,0.97255 1.737519,1.85975 1.733232,1.97143 -0.004,0.11171 -0.520356,0.54237 -1.145143,0.95655 -0.62484,0.41418 -1.665896,1.24182 -2.313543,1.83967 -0.647673,0.59791 -1.251638,1.08474 -1.342046,1.08263 -0.180578,-0.006 -2.77487,-1.63592 -3.671623,-2.30839 l -0.564303,-0.42272 1.158584,-1.08985 c 1.781148,-1.67523 3.450272,-3.14986 3.95015,-3.48972 0.110066,-0.0748 0.197061,-0.12851 0.290936,-0.14004 z"
       style="font-style:normal;font-variant:normal;font-weight:normal;font-stretch:normal;font-size:57.1315px;line-height:1;font-family:'Centaur MT';-inkscape-font-specification:'Centaur MT';text-align:center;text-anchor:middle;fill:#6d3d94;fill-opacity:1;stroke-width:1.42829"
       id="path1050" />
  </g>
</svg>
